<svg width="200" height="38" viewBox="0 0 200 38" fill="none" xmlns="http://www.w3.org/2000/svg">
<path fill-rule="evenodd" clip-rule="evenodd" d="M115.673 1.13578C115.673 0.752354 115.983 0.441528 116.365 0.441528H124.536C128.95 0.441528 132.124 3.36924 132.124 7.21086C132.124 10.0279 130.046 12.0401 128.331 13.0294C130.265 13.8311 132.891 15.6268 132.891 18.9939C132.891 23.092 129.535 26.0486 124.939 26.0486H116.365C116.181 26.0486 116.005 25.9752 115.875 25.8447C115.745 25.7141 115.672 25.5371 115.673 25.3527V1.13578ZM124.903 22.6879C127.128 22.6879 128.843 20.9675 128.843 18.7004C128.843 16.4686 126.727 14.8524 124.356 14.8524H119.358V22.6831L124.903 22.6879ZM128.077 7.65017C128.077 9.84515 126.655 11.5655 124.319 11.5655H119.391V3.8807H124.319C126.655 3.8807 128.077 5.41831 128.077 7.65017Z" fill="white"/>
<path d="M135.546 12.0995C135.56 11.7218 135.86 11.4186 136.235 11.4053H137.287C137.579 11.4263 137.826 11.6314 137.903 11.9168L138.302 13.1608C139.293 11.8029 140.874 11.0121 142.545 11.0382C143.923 11.0382 145.592 11.4037 145.193 12.3913L144.322 14.1836C144.259 14.3517 144.127 14.4841 143.961 14.5471C143.794 14.61 143.608 14.5973 143.451 14.5123C143.06 14.3482 142.642 14.2611 142.218 14.2558C140.895 14.2457 139.661 14.926 138.955 16.0545V25.3529C138.955 25.9749 138.556 26.0486 137.976 26.0486H136.228C135.853 26.0353 135.552 25.7312 135.54 25.3529L135.546 12.0995Z" fill="white"/>
<path d="M147.02 12.1701C147.033 11.7934 147.342 11.4914 147.727 11.479H149.846C150.23 11.4922 150.538 11.794 150.552 12.1701V25.3558C150.539 25.7325 150.23 26.0353 149.846 26.0485H147.727C147.342 26.0361 147.032 25.7331 147.02 25.3558V12.1701Z" fill="white"/>
<path fill-rule="evenodd" clip-rule="evenodd" d="M163.6 11.789C163.066 11.5664 161.901 11.0809 160.356 11.0809C156.324 11.0809 153.203 14.4923 153.201 18.7847C153.201 23.0047 156.143 26.4901 159.992 26.4901C162.855 26.4901 164.605 24.4355 164.605 24.4355L164.895 25.4998C165.005 25.8663 165.223 26.1236 165.549 26.1236H166.639C167.015 26.1111 167.317 25.8059 167.329 25.4258V1.13764C167.316 0.758223 167.014 0.453977 166.639 0.441528H164.532C164.157 0.453977 163.855 0.758223 163.842 1.13764V11.8847C163.787 11.8671 163.706 11.8333 163.6 11.789ZM163.877 21.1334C163.696 21.5369 162.642 23.3342 160.428 23.3342C158.103 23.3342 156.579 21.2443 156.581 18.7782C156.581 16.2831 158.285 14.2655 160.717 14.2655C161.831 14.2585 162.925 14.5635 163.877 15.1465V21.1334Z" fill="white"/>
<path fill-rule="evenodd" clip-rule="evenodd" d="M172.118 21.0441C171.371 20.0103 170.976 18.7581 170.993 17.4766C170.993 14.0541 173.536 11.0379 177.232 11.0379H183.58C183.764 11.032 183.943 11.1039 184.073 11.2365C184.204 11.369 184.274 11.5504 184.268 11.7376V12.6565C184.268 12.9144 184.123 13.2449 183.869 13.282L181.871 13.8349C181.871 13.8349 183.43 15.0117 183.43 17.7716C183.43 20.899 181.037 23.7685 177.263 23.7685C175.942 23.7685 175.048 23.4682 174.538 23.2967C174.334 23.2281 174.191 23.1801 174.107 23.1801C173.852 23.1801 172.619 23.8056 172.619 24.9824C172.619 25.8288 173.272 26.4914 174.367 26.4914H179.295C182.451 26.4914 184.99 28.2211 184.99 31.4211C184.99 34.6582 182.087 37.5277 177.263 37.5277C172.149 37.5277 170.081 34.879 170.081 32.4883C170.081 30.3244 171.789 29.2918 172.199 29.0442L172.222 29.0304V28.9191C171.46 28.6983 169.537 27.7052 169.537 25.2404C169.543 22.4063 172.118 21.0441 172.118 21.0441ZM177.232 34.5099C179.445 34.5099 181.365 33.3701 181.365 31.6081C181.365 31.0197 181.003 29.5124 178.644 29.5124C177.592 29.5124 176.503 29.5124 175.452 29.5866L175.446 29.5888C175.202 29.6718 173.457 30.2645 173.457 31.9047C173.461 33.4056 175.02 34.5099 177.232 34.5099ZM177.306 14.1637C179.119 14.1637 180.353 15.563 180.353 17.549C180.353 19.5367 179.119 20.9344 177.306 20.9344C175.456 20.9344 174.114 19.5367 174.114 17.549C174.114 15.5614 175.456 14.1637 177.306 14.1637Z" fill="white"/>
<path fill-rule="evenodd" clip-rule="evenodd" d="M200 17.8448C200 13.9075 197.055 11.0376 193.23 11.0376C188.819 11.0376 185.875 14.6073 185.872 18.7623C185.872 22.9946 188.815 26.4901 193.266 26.4901C195.732 26.4901 197.644 25.5695 198.711 24.6505C199.152 24.2829 199.043 23.9894 198.785 23.6944L197.755 22.2965C197.461 21.9289 197.204 22.0756 196.762 22.3336C196.027 22.8124 194.811 23.4009 193.488 23.4009C191.268 23.3914 189.427 21.678 189.259 19.4636H199.263C199.613 19.4571 199.899 19.1862 199.926 18.838C199.969 18.5086 199.994 18.177 200 17.8448ZM193.193 13.8704C194.997 13.8704 196.468 15.3714 196.578 17.145H189.44C189.669 15.2539 191.289 13.8409 193.193 13.8704Z" fill="white"/>
<path fill-rule="evenodd" clip-rule="evenodd" d="M144.812 3.97351C144.812 6.16802 146.591 7.94702 148.785 7.94702C149.839 7.94744 150.85 7.52894 151.595 6.78367C152.34 6.0384 152.759 5.02748 152.759 3.97351C152.759 1.779 150.98 0 148.785 0C146.591 0 144.812 1.779 144.812 3.97351ZM145.47 3.97826C145.47 2.14673 146.954 0.661982 148.786 0.661982V0.65248C150.619 0.657717 152.102 2.14518 152.102 3.97826C152.102 5.80978 150.617 7.29453 148.786 7.29453C146.954 7.29453 145.47 5.80978 145.47 3.97826Z" fill="#C39E37"/>
<path d="M50.1327 26.4901C43.0271 26.4938 37.2265 20.8127 37.0884 13.7146C36.9504 6.6164 42.5255 0.714423 49.6259 0.442194C49.9872 0.426222 50.1055 0.699351 50.1055 1.08109C50.1151 1.2155 50.0694 1.34801 49.9788 1.44785C49.8882 1.5477 49.7607 1.6062 49.6259 1.60978C43.3467 1.87061 38.3586 6.97519 38.248 13.2534C38.1373 19.5317 42.9424 24.8085 49.2085 25.2901C55.4746 25.7717 61.0309 21.2911 61.8825 15.0698H51.4515C51.1606 15.0698 50.9911 14.8062 50.9911 14.5155C50.9911 14.1418 51.127 13.9038 51.4819 13.9038H62.5923C62.7439 13.9037 62.8885 13.9671 62.9912 14.0784C63.0939 14.1898 63.1452 14.3391 63.1327 14.49V14.5347C62.5827 21.2367 56.8741 26.4901 50.1327 26.4901Z" fill="white"/>
<path fill-rule="evenodd" clip-rule="evenodd" d="M101.967 0.606455L112.999 25.8326C113.038 25.9535 113.023 25.9841 113.012 26.0018C113.001 26.0196 112.946 26.047 112.816 26.047H111.875C111.718 26.041 111.577 25.95 111.508 25.81L106.907 15.0969H96.2375L91.5814 25.818C91.512 25.9553 91.3725 26.0437 91.218 26.0486H90.2057C90.1392 26.0486 90.0905 26.0421 90.0759 26.0147C90.0613 25.9873 90.0597 25.9309 90.0986 25.8261L101.242 0.606455C101.305 0.505724 101.415 0.444609 101.534 0.445235H101.643C101.775 0.424897 101.905 0.489585 101.967 0.606455ZM101.412 3.18439L96.756 13.9023H106.397L101.782 3.1586C101.758 3.08067 101.683 3.02962 101.602 3.03607C101.511 3.03524 101.433 3.09688 101.412 3.18439Z" fill="white"/>
<path fill-rule="evenodd" clip-rule="evenodd" d="M51.2148 5.73951C51.2148 8.90936 53.7845 11.479 56.9544 11.479C58.4767 11.4795 59.9368 10.8749 61.0133 9.79844C62.0897 8.72198 62.6943 7.26186 62.6939 5.73951C62.6939 2.56967 60.1242 0 56.9544 0C53.7845 0 51.2148 2.56967 51.2148 5.73951ZM52.1648 5.73948C52.1648 3.09436 54.3091 0.95006 56.9542 0.95006V0.946811C59.5991 0.950393 61.7418 3.09457 61.7436 5.73948C61.7436 8.38461 59.5993 10.5289 56.9542 10.5289C54.3091 10.5289 52.1648 8.38461 52.1648 5.73948Z" fill="#C39E37"/>
<path d="M85.815 26.4835C85.7802 26.4853 85.7469 26.4688 85.7271 26.4399C85.0747 25.5421 69.2223 2.98482 69.2223 2.98482L69.2319 26.1196C69.2269 26.2907 69.0909 26.4283 68.9217 26.4334H68.3014C68.1301 26.4334 67.9912 26.2929 67.9912 26.1196V1.20871C67.9968 1.11375 68.0407 1.02528 68.1126 0.964084C68.1846 0.902888 68.2783 0.874355 68.3717 0.885188H69.2175C69.2559 0.885188 69.2927 0.91107 69.3294 0.966068L85.6695 24.1316V1.20224C85.6729 1.02796 85.8122 0.887768 85.9845 0.885188H86.6352C86.7189 0.885584 86.7988 0.920167 86.857 0.981085C86.9151 1.042 86.9464 1.12409 86.9438 1.20871L86.9758 26.1762C86.9758 26.3929 86.7663 26.49 86.5585 26.49L85.815 26.4835Z" fill="white"/>
<path d="M7.72949 26.0486C3.55182 26.0486 0.69359 23.6201 0.162913 23.1324C-0.051616 22.972 -0.043551 22.5935 0.17743 22.2999C0.30378 22.117 0.507904 22.0021 0.730689 21.9887C0.81339 21.9875 0.894083 22.0141 0.959734 22.0641C1.88076 22.8902 4.39058 24.8167 7.73433 24.8167C11.2603 24.8167 14.2686 22.571 14.2686 19.9067C14.2686 16.5927 11.4684 14.9806 6.99396 13.4728C2.76791 11.9891 0 10.7123 0 6.65241C0.0230472 5.1162 0.649429 3.6499 1.74526 2.5669C3.1276 1.17618 5.17289 0.441528 7.65691 0.441528C9.82963 0.463609 11.9528 1.0898 13.7863 2.24929C14.0008 2.4097 14.0089 2.77382 13.8008 3.07698C13.679 3.26462 13.472 3.38045 13.2476 3.38657C13.1681 3.38745 13.0899 3.36634 13.0217 3.32561L12.9766 3.29834C11.9717 2.67437 9.92478 1.63173 7.62142 1.63173C5.05998 1.63173 1.21459 2.97432 1.21459 6.63637C1.21459 9.7354 3.62118 11.1181 7.45205 12.3628C12.6395 14.1273 15.4525 15.842 15.4525 19.8056C15.459 23.1902 11.9184 26.0486 7.72949 26.0486Z" fill="white"/>
<path d="M26.4919 26.49C26.2787 26.49 26.0975 26.49 25.9837 26.3684C25.9004 26.2821 25.8562 26.1647 25.8619 26.0442V15.8145L16.4135 1.24977C16.3414 1.15088 16.3189 1.0682 16.3462 1.01146C16.4022 0.92642 16.4986 0.877705 16.5995 0.883382H17.4378C17.5779 0.889689 17.7071 0.961605 17.7873 1.07792L26.4951 14.5338L35.2029 1.07792C35.286 0.964971 35.4135 0.894008 35.5524 0.883382H36.3908C36.4886 0.877733 36.5816 0.92694 36.6328 1.01146C36.6617 1.0682 36.6328 1.15088 36.5687 1.24491L27.1235 15.8275V26.0539C27.1327 26.1737 27.0907 26.2917 27.0081 26.3781C26.8959 26.49 26.7147 26.49 26.4919 26.49Z" fill="white"/>
</svg>
